<?xml version="1.0" encoding="UTF-8" standalone="no"?>
<svg
   xmlns:dc="http://purl.org/dc/elements/1.1/"
   xmlns:cc="http://creativecommons.org/ns#"
   xmlns:rdf="http://www.w3.org/1999/02/22-rdf-syntax-ns#"
   xmlns:svg="http://www.w3.org/2000/svg"
   xmlns="http://www.w3.org/2000/svg"
   viewBox="0 0 529.13464 415.74799"
   height="415.74799"
   width="529.13464"
   xml:space="preserve"
   id="svg2"
   version="1.1"><metadata
     id="metadata8"><rdf:RDF><cc:Work
         rdf:about=""><dc:format>image/svg+xml</dc:format><dc:type
           rdf:resource="http://purl.org/dc/dcmitype/StillImage" /></cc:Work></rdf:RDF></metadata><defs
     id="defs6"><linearGradient
       id="linearGradient30"
       spreadMethod="pad"
       gradientTransform="matrix(306.14111,0,0,-306.14111,45.69043,176.0498)"
       gradientUnits="userSpaceOnUse"
       y2="0"
       x2="1"
       y1="0"
       x1="0"><stop
         id="stop24"
         offset="0"
         style="stop-opacity:1;stop-color:#d9393f" /><stop
         id="stop26"
         offset="0.41935746"
         style="stop-opacity:1;stop-color:#d9393f" /><stop
         id="stop28"
         offset="1"
         style="stop-opacity:1;stop-color:#f68a35" /></linearGradient><clipPath
       id="clipPath44"
       clipPathUnits="userSpaceOnUse"><path
         id="path42"
         d="M 0,311.811 H 396.851 V 0 H 0 Z" /></clipPath></defs><g
     transform="matrix(1.3333333,0,0,-1.3333333,0,415.748)"
     id="g10"><g
       id="g12"><g
         id="g14"><g
           id="g20"><g
             id="g22"><path
               id="path32"
               style="fill:url(#linearGradient30);stroke:none"
               d="m 261.439,141.649 -34.255,34.232 0.169,0.157 27.899,28.023 -15.069,-6.475 -12.565,-10.569 35.338,-31.963 27.157,27.132 5.754,-6.148 z m 44.762,80.158 -10.712,10.714 -42.284,-29.818 36.035,36.689 v 18.937 l -27.801,8.376 -90.68,-90.667 0.068,-0.056 -37.723,-37.704 -5.875,5.874 65.984,65.941 -0.291,19.794 -22.2,2.696 -65.983,-65.948 -6.093,6.085 65.687,65.451 v 20.37 l -27.667,8.164 -90.976,-70.886 v -19.781 l 90.976,-90.642 62.39,62.364 62.383,-62.364 90.393,90.642 v 19.781 z" /></g></g></g></g><g
       transform="translate(351.8315,196.1182)"
       id="g34"><path
         id="path36"
         style="fill:#d5d3d3;fill-opacity:1;fill-rule:nonzero;stroke:none"
         d="m 0,0 -45.921,45.77 -10.713,10.713 -55.014,-55.011 22.482,-22.49 27.157,27.151 5.753,-6.133 -34.427,-34.422 -34.256,34.25 0.168,0.172 -0.32,0.021 62.5,62.481 L -90.683,90.673 -181.364,0 l 0.069,-0.075 -37.724,-37.718 -5.875,5.873 65.984,65.981 -22.491,22.486 -65.984,-65.975 -6.092,6.091 65.978,66.05 -27.958,27.96 L -306.141,0 l 90.684,-90.678 62.39,62.38 62.384,-62.38 z" /></g><g
       id="g38"><g
         clip-path="url(#clipPath44)"
         id="g40"><g
           transform="translate(34.4253,48.3154)"
           id="g46"><path
             id="path48"
             style="fill:#656565;fill-opacity:1;fill-rule:nonzero;stroke:none"
             d="M 0,0 H 29.888 C 29.388,7.93 24.025,13.455 15.302,13.455 6.578,13.455 0.429,7.93 0,0 m 0,-2.146 c 0.429,-8.514 7.222,-13.911 15.802,-13.911 5.649,0 11.083,2.407 13.943,6.045 h 0.214 l 1.788,-1.299 v -0.259 c -3.36,-4.16 -9.51,-6.762 -15.873,-6.762 -10.225,0 -18.663,6.566 -18.663,17.031 0,9.621 7.151,17.031 18.019,17.031 10.869,0 17.447,-7.41 17.447,-16.771 0,-0.455 0,-0.779 -0.072,-1.105 z" /></g><g
           transform="translate(99.9971,42.3994)"
           id="g50"><path
             id="path52"
             style="fill:#656565;fill-opacity:1;fill-rule:nonzero;stroke:none"
             d="M 0,0 V 3.836 C -2.86,5.07 -7.58,6.24 -12.013,6.24 c -6.721,0 -12.441,-2.664 -12.441,-8.189 0,-5.137 5.005,-8.192 11.154,-8.192 C -6.65,-10.141 0,-6.5 0,0 m 7.579,-11.311 -0.143,-0.195 c -0.572,-0.455 -1.573,-0.91 -2.932,-0.91 -2.788,0 -4.433,1.82 -4.433,4.682 v 1.365 c -2.788,-4.031 -8.151,-6.047 -13.585,-6.047 -7.651,0 -13.729,3.9 -13.729,10.467 0,7.215 7.222,10.4 15.159,10.4 4.433,0 8.723,-0.976 12.084,-2.406 v 3.965 c 0,6.306 -6.149,9.361 -12.227,9.361 -5.148,0 -9.009,-2.211 -11.87,-5.006 h -0.214 l -1.716,1.365 v 0.196 c 3.217,3.314 8.008,5.72 14.014,5.72 7.151,0 14.73,-3.38 14.73,-11.896 V -7.279 c 0,-2.016 0.786,-2.926 2.145,-2.926 0.786,0 1.287,0.26 1.787,0.584 l 0.215,-0.065 z" /></g><g
           transform="translate(123.7393,64.0459)"
           id="g54"><path
             id="path56"
             style="fill:#656565;fill-opacity:1;fill-rule:nonzero;stroke:none"
             d="M 0,0 C 4.647,0 8.795,-2.016 11.083,-5.07 V -5.33 L 9.295,-6.5 H 9.081 c -2.074,2.6 -5.148,4.225 -9.01,4.225 -4.719,0 -8.008,-2.471 -8.008,-5.85 0,-3.381 3.075,-4.875 7.007,-6.371 5.864,-2.211 13.228,-4.16 13.228,-10.725 0,-5.461 -5.148,-8.842 -12.012,-8.842 -5.792,0 -10.225,2.276 -12.87,5.981 v 0.195 l 1.715,1.235 h 0.286 c 2.074,-3.055 5.649,-5.135 10.654,-5.135 5.649,0 9.51,2.6 9.51,6.5 0,4.941 -6.006,6.5 -11.869,8.775 -4.219,1.625 -8.438,3.512 -8.438,8.256 C -10.726,-3.381 -6.149,0 0,0" /></g><g
           transform="translate(174.9385,63.0049)"
           id="g58"><path
             id="path60"
             style="fill:#656565;fill-opacity:1;fill-rule:nonzero;stroke:none"
             d="m 0,0 -17.732,-36.141 c -2.146,-4.355 -4.935,-5.849 -8.367,-5.849 -1.859,0 -3.289,0.455 -4.433,1.17 l -0.071,0.259 0.858,1.69 0.286,0.064 c 1.001,-0.648 2.145,-0.974 3.289,-0.974 2.288,0 4.29,1.17 5.792,4.291 l 2.216,4.484 -12.727,26.131 c -1.287,2.6 -2.002,3.641 -3.504,3.705 -0.715,0 -1.358,-0.195 -1.859,-0.584 l -0.286,0.065 -0.715,1.625 0.143,0.195 c 0.644,0.519 1.645,0.91 3.003,0.91 2.932,0 4.219,-1.82 5.435,-4.355 L -16.588,-27.885 -2.789,0.26 h 2.646 z" /></g><g
           transform="translate(215.8271,46.792)"
           id="g62"><path
             id="path64"
             style="fill:#737577;fill-opacity:1;fill-rule:nonzero;stroke:none"
             d="m 0,0 c 0,-9.396 -7.953,-16.986 -19.372,-16.986 -11.304,0 -20.053,7.435 -20.053,17.4 0,9.965 8.749,17.4 19.997,17.4 6.646,0 12.1,-2.58 15.565,-6.453 v -0.568 l -5.51,-4.234 h -0.625 c -2.159,2.375 -5.511,3.976 -9.374,3.976 -6.191,0 -10.963,-4.234 -10.963,-10.172 0,-5.836 4.714,-10.07 11.134,-10.07 4.942,0 9.203,2.582 10.282,6.766 h -10.396 v 5.937 h 18.52 L -0.17,2.479 C -0.057,1.705 0,0.725 0,0" /></g><g
           transform="translate(229.9111,57.3779)"
           id="g66"><path
             id="path68"
             style="fill:#737577;fill-opacity:1;fill-rule:nonzero;stroke:none"
             d="M 0,0 V -6.971 H 13.804 V -13.27 H 0 v -7.074 h 18.008 v -6.609 H -8.862 V 6.609 h 26.87 V 0 Z" /></g><g
           transform="translate(288.1348,63.9873)"
           id="g70"><path
             id="path72"
             style="fill:#737577;fill-opacity:1;fill-rule:nonzero;stroke:none"
             d="m 0,0 v -33.563 h -6.419 l -17.667,20.036 v -20.036 h -8.863 V 0 h 6.363 L -8.862,-20.086 V 0 Z" /></g><g
           transform="translate(313.4102,57.3779)"
           id="g74"><path
             id="path76"
             style="fill:#737577;fill-opacity:1;fill-rule:nonzero;stroke:none"
             d="M 0,0 V -26.953 H -8.862 V 0 H -20.337 V 6.609 H 11.532 V 0 Z" /></g><g
           transform="translate(356.751,47.2061)"
           id="g78"><path
             id="path80"
             style="fill:#737577;fill-opacity:1;fill-rule:nonzero;stroke:none"
             d="m 0,0 c 0,5.937 -4.942,10.121 -11.191,10.121 -6.249,0 -11.192,-4.184 -11.192,-10.121 0,-5.887 4.943,-10.121 11.192,-10.121 C -4.942,-10.121 0,-5.887 0,0 m -31.415,0 c 0,9.965 8.691,17.4 20.224,17.4 C 0.341,17.4 9.032,9.965 9.032,0 c 0,-9.914 -8.691,-17.4 -20.223,-17.4 -11.533,0 -20.224,7.435 -20.224,17.4" /></g></g></g></g></svg>